<?xml version="1.0" encoding="UTF-8"?>
<svg xmlns="http://www.w3.org/2000/svg" viewBox="0 0 584 522">
  <style>
    /* Set everything to white */
    * {
      fill: #fff;
      stroke: #fff;
    }
    .node {
      fill: #fff;
    }
    .node-outline {
      fill: #fff;
      stroke: #fff;
      stroke-width: 2;
    }
    .connector {
      stroke: #fff;
      stroke-width: 2;
      stroke-linecap: round;
    }
  </style>
  <!-- Nodes -->
  <circle class="node" cx="278" cy="200" r="46"/>
  <circle class="node" cx="395" cy="325" r="30"/>
  <circle class="node" cx="440.42" cy="120.65" r="30.59"/>
  <circle class="node" cx="131.42" cy="87.65" r="24.58"/>
  <circle class="node" cx="148.08" cy="369.49" r="27.96"/>
  <circle class="node-outline" cx="38" cy="240" r="30"/>
  <circle class="node-outline" cx="301.5" cy="31.5" r="23.5"/>
  <circle class="node-outline" cx="329.5" cy="485.5" r="28.5"/>
  <circle class="node-outline" cx="545" cy="271" r="31"/>
  
  <!-- Connecting lines -->
  <line class="connector" x1="171.19" y1="341.94" x2="247.19" y2="244.35"/>
  <line class="connector" x1="314.79" y1="239.52" x2="366.76" y2="299.58"/>
  <line class="connector" x1="329.85" y1="176.15" x2="411" y2="137"/>
  <line class="connector" x1="235.14" y1="167.15" x2="158.19" y2="106.21"/>
  <line class="connector" x1="55" y1="210" x2="112.11" y2="113.9"/>
  <line class="connector" x1="55" y1="264.72" x2="119.83" y2="347.25"/>
  <line class="connector" x1="176.13" y1="391.99" x2="294" y2="471"/>
  <line class="connector" x1="350" y1="457" x2="384.81" y2="361.61"/>
  <line class="connector" x1="431.1" y1="313.13" x2="514" y2="287"/>
  <line class="connector" x1="529.17" y1="244.35" x2="469.49" y2="146"/>
  <line class="connector" x1="323.89" y1="38.64" x2="411" y2="95.7"/>
  <line class="connector" x1="278" y1="31" x2="158.19" y2="69.1"/>
</svg>